<svg width="36" height="36" viewBox="0 0 36 36" fill="none" xmlns="http://www.w3.org/2000/svg">
<path fill-rule="evenodd" clip-rule="evenodd" d="M35.3419 22.8398C35.7708 21.2998 36 19.6767 36 18C36 17.5313 35.9821 17.0667 35.9469 16.607L33.4956 19.0584C32.5947 19.959 31.0376 19.3275 31.0376 18.0403V15.1606H9.43985C8.64463 15.1606 8 14.5159 8 13.7207V12.7608C8 11.9656 8.64463 11.321 9.43985 11.321H31.0376V8.44128C31.0376 7.66299 31.6103 7.12115 32.2627 7.01791C28.9714 2.74963 23.8068 0 18 0C8.05887 0 0 8.05887 0 18C0 27.9411 8.05887 36 18 36C24.7941 36 30.709 32.2359 33.7731 26.6793H15.6792V29.559C15.6792 30.8451 14.1228 31.4787 13.2212 30.5771L8.42169 25.7776C7.85944 25.2154 7.85944 24.3037 8.42169 23.7414L13.2212 18.9419C14.1276 18.0355 15.6792 18.6814 15.6792 19.9601V22.8398H35.3419Z" fill="#85CB33"/>
</svg>
